<?xml version="1.0" encoding="utf-8"?>
<!-- Generator: Adobe Illustrator 16.0.0, SVG Export Plug-In . SVG Version: 6.00 Build 0)  -->
<!DOCTYPE svg PUBLIC "-//W3C//DTD SVG 1.1//EN" "http://www.w3.org/Graphics/SVG/1.1/DTD/svg11.dtd">
<svg version="1.1" id="Camada_1" xmlns="http://www.w3.org/2000/svg" xmlns:xlink="http://www.w3.org/1999/xlink" x="0px" y="0px"
	 width="293px" height="120px" viewBox="0 0 293 120" enable-background="new 0 0 293 120" xml:space="preserve">
<g>
	<g>
		<g>
			<path fill="#1C1C1C" d="M122.383,70.574c-0.537,0-1.043-0.167-1.548-0.51c-0.54-0.341-0.815-0.854-0.815-1.525V48.473
				c-0.031-0.023-0.06-0.042-0.083-0.055l-0.303-0.151c-0.107,0.041-0.315,0.109-0.638,0.232v20.25c0,0.553-0.239,1.004-0.709,1.341
				c-0.433,0.321-0.918,0.484-1.438,0.484c-0.462,0-0.916-0.132-1.387-0.403c-0.508-0.283-0.766-0.732-0.766-1.333V35.414
				c0-0.041-0.038-0.125-0.218-0.299c-0.15-0.13-0.277-0.196-0.384-0.196c-0.038,0.002-0.185,0.064-0.273,0.102
				c-0.134,0.056-0.151,0.126-0.151,0.18v12.365c0,0.44-0.198,0.775-0.589,0.996c-0.372,0.224-0.696,0.333-0.989,0.333
				c-0.442,0-0.847-0.14-1.203-0.417c-0.359-0.289-0.541-0.681-0.541-1.167V32.834c0-0.585,0.21-1.157,0.625-1.699
				c0.409-0.525,0.915-0.994,1.503-1.394c0.638-0.427,1.248-0.737,1.865-0.946c0.65-0.233,1.219-0.351,1.688-0.351h7.185
				c0.598,0,1.246,0.122,1.874,0.352c0.668,0.226,1.248,0.527,1.768,0.919c0.531,0.388,0.974,0.879,1.313,1.458
				c0.334,0.596,0.503,1.24,0.503,1.916V47.31c0,0.441-0.157,0.862-0.466,1.249c-0.309,0.394-0.693,0.585-1.173,0.585
				c-0.234,0-0.557-0.109-0.959-0.324c-0.552-0.274-0.668-0.606-0.668-0.836V35.307c0-0.124-0.043-0.227-0.119-0.282
				c-0.097-0.069-0.225-0.106-0.367-0.106c-0.108,0-0.226,0.032-0.358,0.099c-0.059,0.03-0.128,0.09-0.128,0.29v33.442
				c0,0.519-0.225,0.96-0.67,1.31C123.343,70.4,122.879,70.574,122.383,70.574z M119.593,27.465c-1.135,0-2.098-0.378-2.862-1.124
				c-0.764-0.728-1.151-1.681-1.151-2.833c0-1.077,0.386-2.04,1.147-2.862c0.761-0.83,1.725-1.251,2.866-1.251
				c0.544,0,1.059,0.115,1.527,0.341c0.483,0.235,0.911,0.54,1.272,0.906c0.37,0.366,0.658,0.793,0.882,1.304
				c0.217,0.472,0.327,0.998,0.327,1.562c0,1.153-0.408,2.107-1.214,2.836C121.603,27.088,120.662,27.465,119.593,27.465z"/>
			<path fill="#FFFFFF" d="M119.593,19.527c0.508,0,1.006,0.104,1.47,0.328c0.471,0.229,0.882,0.521,1.236,0.88
				c0.37,0.367,0.646,0.788,0.854,1.264c0.219,0.476,0.316,0.984,0.316,1.509c0,1.115-0.385,2.027-1.171,2.739
				c-0.765,0.725-1.665,1.086-2.706,1.086c-1.108,0-2.027-0.362-2.77-1.086c-0.747-0.711-1.112-1.624-1.112-2.739
				c0-1.044,0.365-1.966,1.112-2.773C117.565,19.926,118.485,19.527,119.593,19.527 M123.213,28.575
				c0.578,0,1.202,0.114,1.828,0.344c0.647,0.218,1.222,0.514,1.734,0.9c0.521,0.38,0.946,0.851,1.279,1.419
				c0.324,0.577,0.485,1.197,0.485,1.849V47.31c0,0.409-0.147,0.804-0.438,1.167c-0.292,0.373-0.643,0.536-1.07,0.536
				c-0.202,0-0.504-0.098-0.897-0.308c-0.396-0.197-0.599-0.444-0.599-0.72V35.307c0-0.164-0.062-0.307-0.173-0.389
				c-0.123-0.087-0.276-0.132-0.445-0.132c-0.144,0-0.282,0.045-0.417,0.112c-0.131,0.066-0.201,0.194-0.201,0.408v33.442
				c0,0.484-0.213,0.886-0.62,1.206c-0.413,0.337-0.848,0.487-1.297,0.487c-0.492,0-0.978-0.15-1.474-0.487
				c-0.508-0.32-0.757-0.793-0.757-1.416v-20.13c-0.057-0.047-0.111-0.085-0.151-0.107l-0.307-0.153h-0.052h-0.049
				c-0.11,0.036-0.349,0.112-0.729,0.26v20.34c0,0.505-0.213,0.918-0.654,1.233c-0.43,0.318-0.889,0.46-1.362,0.46
				c-0.421,0-0.856-0.118-1.321-0.386c-0.467-0.261-0.7-0.662-0.7-1.219V35.414c0-0.107-0.091-0.232-0.258-0.394
				c-0.177-0.154-0.331-0.233-0.476-0.233c-0.056,0-0.166,0.045-0.325,0.112c-0.158,0.066-0.232,0.17-0.232,0.302v12.365
				c0,0.395-0.173,0.684-0.522,0.881c-0.343,0.206-0.649,0.316-0.924,0.316c-0.422,0-0.792-0.132-1.122-0.389
				c-0.323-0.259-0.49-0.612-0.49-1.063V32.834c0-0.558,0.197-1.095,0.598-1.619c0.395-0.507,0.885-0.965,1.472-1.365
				c0.587-0.394,1.19-0.712,1.833-0.93c0.642-0.23,1.196-0.344,1.646-0.344H123.213 M119.593,19.263
				c-1.18,0-2.177,0.435-2.964,1.294c-0.784,0.847-1.181,1.84-1.181,2.951c0,1.189,0.401,2.175,1.193,2.93
				c0.787,0.769,1.781,1.159,2.952,1.159c1.104,0,2.076-0.39,2.888-1.159c0.83-0.751,1.253-1.738,1.253-2.93
				c0-0.583-0.114-1.128-0.34-1.619c-0.228-0.522-0.526-0.962-0.909-1.341c-0.37-0.375-0.81-0.689-1.306-0.93
				C120.69,19.382,120.157,19.263,119.593,19.263L119.593,19.263z M123.213,28.312h-7.185c-0.485,0-1.069,0.121-1.735,0.359
				c-0.625,0.212-1.245,0.526-1.892,0.959c-0.601,0.409-1.117,0.888-1.533,1.422c-0.435,0.567-0.654,1.166-0.654,1.781V47.31
				c0,0.528,0.198,0.955,0.589,1.269c0.382,0.298,0.814,0.447,1.287,0.447c0.317,0,0.665-0.115,1.06-0.354
				c0.429-0.242,0.65-0.616,0.65-1.107V35.2c0-0.009,0-0.029,0.07-0.059c0.071-0.03,0.203-0.086,0.241-0.093
				c0.032,0.001,0.124,0.03,0.284,0.17c0.148,0.143,0.167,0.201,0.169,0.207l-0.001,33.412c0,0.652,0.281,1.14,0.835,1.449
				c0.489,0.281,0.964,0.419,1.45,0.419c0.549,0,1.061-0.172,1.519-0.512c0.503-0.359,0.761-0.847,0.761-1.445V48.59
				c0.239-0.09,0.405-0.145,0.504-0.177l0.25,0.125c0.001,0,0.003,0.002,0.005,0.003v19.998c0,0.719,0.296,1.271,0.88,1.64
				c0.521,0.354,1.051,0.527,1.615,0.527c0.527,0,1.02-0.184,1.464-0.547c0.474-0.373,0.716-0.849,0.716-1.41V35.307
				c0-0.145,0.04-0.164,0.056-0.173c0.112-0.056,0.21-0.084,0.298-0.084c0.115,0,0.216,0.029,0.292,0.083
				c0.037,0.027,0.062,0.093,0.062,0.173v12.678c0,0.267,0.129,0.649,0.745,0.956c0.415,0.222,0.758,0.335,1.015,0.335
				c0.523,0,0.941-0.208,1.277-0.637c0.327-0.409,0.494-0.857,0.494-1.33V33.088c0-0.699-0.174-1.364-0.519-1.978
				c-0.351-0.599-0.806-1.104-1.354-1.504c-0.528-0.398-1.12-0.706-1.805-0.937C124.48,28.433,123.835,28.312,123.213,28.312
				L123.213,28.312z"/>
		</g>
	</g>
	<g>
		<path fill-rule="evenodd" clip-rule="evenodd" fill="#1C1C1C" stroke="#FFFFFF" stroke-width="0.2639" stroke-miterlimit="10" d="
			M108.441,53.747c-1.532,0-3.019,0.03-4.505-0.012c-0.513-0.013-0.586,0.156-0.586,0.611c0.02,4.489,0.014,8.974,0.011,13.462
			c0,1.475-0.911,2.346-2.236,2.175c-1.036-0.132-1.634-0.849-1.634-1.969c-0.006-4.248-0.006-8.5-0.006-12.747
			c0-0.326-0.028-0.657,0.011-0.975c0.057-0.468-0.143-0.546-0.575-0.562c-0.49-0.015-0.597,0.124-0.597,0.603
			c0.02,4.556,0.017,9.107,0.015,13.655c-0.004,1.473-1.182,2.345-2.578,1.928c-0.819-0.245-1.28-0.937-1.28-1.94
			c0-4.466-0.017-8.934,0.014-13.398c0.006-0.646-0.115-0.875-0.814-0.847c-1.418,0.065-2.841,0.016-4.336,0.016
			c0.398-1.401,0.776-2.741,1.164-4.085c1.373-4.743,2.754-9.485,4.113-14.231c0.053-0.197,0.419-0.52-0.054-0.668
			c-0.427-0.13-0.635,0.091-0.763,0.525c-0.974,3.36-1.975,6.715-2.967,10.071c-0.225,0.761-0.572,1.425-1.447,1.548
			c-1.373,0.198-2.336-0.886-1.958-2.259c0.498-1.822,1.073-3.621,1.617-5.43c0.639-2.128,1.289-4.248,1.931-6.37
			c0.719-2.38,2.775-3.92,5.249-3.923c1.748,0,3.495,0,5.243,0c2.514,0,4.661,1.559,5.393,3.947
			c1.156,3.777,2.296,7.561,3.438,11.343c0.065,0.225,0.128,0.459,0.159,0.69c0.125,0.94-0.417,1.784-1.259,2.001
			c-0.877,0.225-1.702-0.202-2.041-1.138c-0.301-0.826-0.527-1.674-0.775-2.519c-0.791-2.662-1.571-5.326-2.369-7.989
			c-0.053-0.184-0.025-0.471-0.318-0.499c-0.21-0.016-0.473-0.051-0.626,0.044c-0.188,0.129,0.008,0.354,0.058,0.526
			c1.755,6.047,3.515,12.096,5.275,18.14C108.422,53.533,108.419,53.6,108.441,53.747z"/>
		<path fill-rule="evenodd" clip-rule="evenodd" fill="#1C1C1C" stroke="#FFFFFF" stroke-width="0.2639" stroke-miterlimit="10" d="
			M103.02,23.661c0,2.328-1.749,4.108-4.049,4.11c-2.313,0.002-4.126-1.767-4.135-4.047c-0.011-2.288,1.797-4.126,4.073-4.142
			C101.201,19.567,103.015,21.366,103.02,23.661z"/>
		<path fill-rule="evenodd" clip-rule="evenodd" fill="#1C1C1C" stroke="#FFFFFF" stroke-width="0.2639" stroke-miterlimit="10" d="
			M99.661,68.219c0-4.764,0-9.521,0-14.287c0.019,0,0.041,0,0.061,0c0,4.773,0,9.542,0,14.311
			C99.702,68.232,99.68,68.228,99.661,68.219z"/>
	</g>
	<g>
		<g>
			<path fill="#1C1C1C" stroke="#FFFFFF" stroke-width="0.2639" stroke-miterlimit="10" d="M83.579,29.531
				c-3.603-1.024-7.388-0.246-11.061-0.561c-3.403-3.034-6.473-6.455-9.779-9.609c-1.677-0.356-3.455,1.438-2.353,3
				c3.588,4.245,7.78,7.952,11.411,12.158c0.307,11.281-0.004,22.593,0.153,33.891c-0.188,2.729,4.322,3.031,4.713,0.449
				c0.12-6.515,0-13.059,0.065-19.585h0.726c0.035,6.223,0,12.448,0.017,18.674c0.018,0.783,0,1.724,0.686,2.263
				c1.442,1.077,3.815,0.072,3.859-1.789c0.069-10.887,0.006-21.787,0.026-32.677c0.316,0.003,0.953,0.011,1.262,0.025
				c0.104,4.064-0.128,8.146,0.116,12.197c0.011,1.102,1.343,1.425,2.237,1.321c0.746-0.422,1.199-1.254,1.174-2.093
				c0.024-4.125-0.005-8.242,0.013-12.358C86.87,32.646,85.857,30.185,83.579,29.531z"/>
			<path fill="#1C1C1C" stroke="#FFFFFF" stroke-width="0.2639" stroke-miterlimit="10" d="M74.791,27.203
				c1.844,1.792,5.21,0.752,5.94-1.649c1.242-2.74-1.377-6.274-4.397-5.547C73.13,20.695,72.242,25.247,74.791,27.203z"/>
		</g>
	</g>
	<g>
		<g>
			<path fill="#ADADAD" d="M79.527,70.785c-0.538,0-1.039-0.162-1.449-0.469c-0.701-0.551-0.72-1.488-0.736-2.241l-0.002-0.124
				c-0.007-2.649-0.005-5.296-0.003-7.942c0.003-3.535,0.006-7.069-0.013-10.603h-0.463c-0.027,2.8-0.021,5.604-0.014,8.407
				c0.009,3.625,0.018,7.372-0.05,11.049c-0.199,1.323-1.379,1.907-2.461,1.907c-0.781,0-1.522-0.294-1.982-0.787
				c-0.391-0.419-0.575-0.966-0.533-1.58c-0.068-4.86-0.048-9.814-0.029-14.605c0.025-6.321,0.051-12.856-0.124-19.273
				c-1.714-1.939-3.622-3.879-5.467-5.755c-1.991-2.023-4.049-4.116-5.913-6.321c-0.439-0.621-0.492-1.315-0.156-1.963
				c0.403-0.778,1.276-1.3,2.171-1.3c0.157,0,0.313,0.017,0.465,0.049c1.425,1.333,2.768,2.698,4.067,4.019
				c1.854,1.887,3.772,3.837,5.772,5.62c0.564,0.022,1.243,0.048,2.059,0.048c0.68,0,1.361-0.018,2.042-0.036
				c0.683-0.018,1.367-0.036,2.049-0.036c1.351,0,3.123,0.063,4.859,0.557c2.357,0.676,3.387,3.217,3.361,5.435
				c-0.008,1.929-0.006,3.858-0.004,5.789c0.002,2.188,0.005,4.377-0.008,6.568c0.026,0.897-0.461,1.766-1.241,2.207
				c-0.158,0.029-0.272,0.036-0.39,0.036c0,0,0,0,0,0c-1.009,0-2.033-0.455-2.043-1.47c-0.143-2.373-0.122-4.801-0.102-7.148
				c0.014-1.615,0.028-3.283-0.011-4.923c-0.285-0.009-0.711-0.015-1.001-0.019c-0.007,4.163-0.003,8.327,0.001,12.492
				c0.007,6.574,0.015,13.371-0.027,20.053C82.114,69.883,80.761,70.785,79.527,70.785z"/>
			<g>
				<path fill="#FFFFFF" d="M62.301,19.315c0.146,0,0.292,0.015,0.438,0.045c3.306,3.154,6.375,6.575,9.779,9.609
					c0.712,0.061,1.429,0.081,2.147,0.081c1.361,0,2.729-0.072,4.091-0.072c1.626,0,3.243,0.103,4.823,0.552
					c2.278,0.654,3.291,3.115,3.266,5.307c-0.018,4.116,0.012,8.233-0.013,12.358c0.024,0.839-0.428,1.671-1.174,2.093
					c-0.104,0.012-0.213,0.018-0.326,0.018c-0.859,0-1.901-0.365-1.911-1.339c-0.244-4.052-0.012-8.133-0.116-12.197
					c-0.31-0.014-0.946-0.022-1.262-0.025c-0.02,10.89,0.043,21.79-0.026,32.677c-0.032,1.336-1.264,2.231-2.49,2.231
					c-0.482,0-0.963-0.139-1.37-0.442c-0.686-0.539-0.667-1.479-0.686-2.263c-0.017-6.227,0.018-12.451-0.017-18.674H76.73
					c-0.065,6.527,0.055,13.071-0.065,19.585c-0.182,1.2-1.253,1.777-2.33,1.777c-1.239,0-2.484-0.766-2.384-2.227
					c-0.157-11.298,0.154-22.609-0.153-33.891c-3.631-4.207-7.823-7.913-11.411-12.158C59.38,20.935,60.774,19.315,62.301,19.315
					 M62.301,19.051L62.301,19.051c-0.943,0-1.863,0.551-2.289,1.371c-0.354,0.684-0.297,1.446,0.158,2.091
					c1.881,2.227,3.941,4.321,5.934,6.347c1.822,1.853,3.706,3.767,5.432,5.761c0.172,6.384,0.146,12.886,0.122,19.175
					c-0.019,4.791-0.039,9.746,0.029,14.618c-0.044,0.63,0.152,1.211,0.569,1.657c0.492,0.527,1.25,0.829,2.079,0.829
					c1.139,0,2.381-0.619,2.59-2.002c0.071-3.713,0.062-7.461,0.054-11.086c-0.007-2.713-0.013-5.516,0.012-8.275h0.202
					c0.018,3.492,0.015,7.039,0.012,10.47c-0.002,2.647-0.004,5.294,0.003,7.941l0.002,0.129c0.016,0.78,0.036,1.752,0.784,2.34
					c0.438,0.328,0.967,0.499,1.533,0.499c1.296,0,2.717-0.951,2.753-2.489c0.042-6.686,0.035-13.483,0.028-20.058
					c-0.005-4.12-0.009-8.24-0.002-12.358c0.232,0.003,0.514,0.008,0.741,0.014c0.036,1.598,0.021,3.221,0.008,4.793
					c-0.021,2.35-0.042,4.78,0.103,7.165c0.011,1.092,1.1,1.587,2.174,1.587c0.123,0,0.243-0.007,0.356-0.02l0.053-0.006
					l0.046-0.026c0.822-0.465,1.336-1.379,1.308-2.331c0.013-2.182,0.011-4.372,0.008-6.56c-0.002-1.931-0.004-3.86,0.004-5.79
					c0.026-2.266-1.033-4.866-3.457-5.561c-1.752-0.499-3.537-0.562-4.896-0.562c-0.683,0-1.368,0.018-2.052,0.036
					c-0.68,0.018-1.36,0.036-2.039,0.036c-0.775,0-1.425-0.023-2.037-0.073c-1.973-1.764-3.868-3.691-5.7-5.555
					c-1.299-1.322-2.643-2.688-4.006-3.989l-0.054-0.052l-0.073-0.016C62.633,19.069,62.468,19.051,62.301,19.051L62.301,19.051z"/>
			</g>
		</g>
		<g>
			<path fill="#ADADAD" d="M77.093,28.239c-0.919,0-1.769-0.334-2.394-0.941c-1.242-0.952-1.785-2.594-1.406-4.275
				c0.364-1.619,1.519-2.824,3.013-3.146c0.273-0.066,0.554-0.1,0.832-0.1c1.297,0,2.54,0.727,3.325,1.944
				c0.791,1.226,0.936,2.678,0.388,3.886C80.392,27.125,78.808,28.239,77.093,28.239L77.093,28.239z"/>
			<g>
				<path fill="#FFFFFF" d="M77.138,19.91c2.656,0,4.723,3.151,3.593,5.644c-0.476,1.566-2.073,2.553-3.638,2.553
					c-0.835,0-1.661-0.281-2.302-0.904c-2.549-1.957-1.661-6.508,1.543-7.197C76.606,19.941,76.875,19.91,77.138,19.91
					 M77.138,19.646c-0.289,0-0.58,0.035-0.866,0.104c-1.539,0.331-2.732,1.574-3.108,3.244c-0.39,1.732,0.172,3.425,1.466,4.418
					c0.626,0.611,1.509,0.958,2.462,0.958c1.772,0,3.408-1.152,3.891-2.74c0.554-1.216,0.405-2.716-0.41-3.98
					C79.765,20.396,78.48,19.646,77.138,19.646L77.138,19.646z"/>
			</g>
		</g>
	</g>
	<line fill="#FFFFFF" stroke="#ADADAD" stroke-miterlimit="10" x1="61.863" y1="10.091" x2="69" y2="17.229"/>
	<line fill="#FFFFFF" stroke="#ADADAD" stroke-miterlimit="10" x1="76.67" y1="14.536" x2="76.67" y2="4.253"/>
	<g>
		<g>
			<path fill="#1C1C1C" d="M110.36,101.721c-0.54,0-1.046-0.167-1.549-0.51c-0.539-0.333-0.814-0.848-0.814-1.525V79.622
				c-0.031-0.024-0.06-0.044-0.084-0.057l-0.301-0.15c-0.106,0.04-0.313,0.106-0.639,0.232v20.25c0,0.553-0.238,1.004-0.709,1.341
				c-0.432,0.319-0.916,0.482-1.438,0.482c-0.461,0-0.915-0.131-1.387-0.4c-0.508-0.286-0.766-0.735-0.766-1.334V66.562
				c0-0.041-0.038-0.126-0.218-0.3c-0.152-0.13-0.276-0.193-0.384-0.193c-0.042,0.002-0.21,0.073-0.273,0.1
				c-0.134,0.057-0.151,0.126-0.151,0.181v12.365c0,0.441-0.198,0.776-0.589,0.996c-0.371,0.223-0.696,0.332-0.989,0.332
				c-0.442,0-0.847-0.14-1.203-0.416c-0.359-0.287-0.54-0.68-0.54-1.168V63.983c0-0.594,0.205-1.15,0.625-1.701
				c0.411-0.527,0.916-0.996,1.502-1.395c0.634-0.425,1.244-0.733,1.865-0.944c0.656-0.234,1.225-0.354,1.689-0.354h7.185
				c0.6,0,1.23,0.119,1.874,0.354c0.674,0.228,1.254,0.528,1.768,0.918c0.532,0.39,0.975,0.88,1.314,1.459
				c0.334,0.597,0.502,1.24,0.502,1.915v14.222c0,0.444-0.157,0.864-0.467,1.251c-0.309,0.394-0.693,0.585-1.171,0.585
				c-0.236,0-0.559-0.11-0.96-0.327c-0.551-0.271-0.668-0.603-0.668-0.834V66.454c0-0.124-0.043-0.226-0.118-0.279
				c-0.097-0.069-0.224-0.106-0.368-0.106c-0.111,0-0.228,0.031-0.357,0.097c-0.06,0.03-0.128,0.09-0.128,0.289v33.443
				c0,0.524-0.225,0.965-0.67,1.309C111.322,101.547,110.857,101.721,110.36,101.721z M107.569,58.613
				c-1.135,0-2.098-0.378-2.862-1.124c-0.764-0.729-1.152-1.683-1.152-2.833c0-1.075,0.386-2.039,1.147-2.862
				c0.761-0.831,1.726-1.251,2.866-1.251c0.544,0,1.058,0.115,1.528,0.342c0.481,0.234,0.909,0.539,1.272,0.906
				c0.369,0.366,0.658,0.793,0.881,1.305c0.217,0.473,0.327,0.999,0.327,1.561c0,1.152-0.408,2.107-1.213,2.837
				C109.58,58.236,108.638,58.613,107.569,58.613z"/>
			<path fill="#FFFFFF" d="M107.569,50.674c0.508,0,1.006,0.104,1.471,0.329c0.47,0.229,0.882,0.522,1.236,0.88
				c0.37,0.367,0.646,0.788,0.854,1.265c0.218,0.476,0.316,0.984,0.316,1.508c0,1.114-0.385,2.027-1.17,2.739
				c-0.766,0.725-1.666,1.086-2.707,1.086c-1.108,0-2.027-0.361-2.77-1.086c-0.746-0.712-1.112-1.625-1.112-2.739
				c0-1.043,0.366-1.965,1.112-2.773C105.542,51.073,106.461,50.674,107.569,50.674 M111.189,59.722
				c0.578,0,1.201,0.117,1.828,0.347c0.647,0.219,1.222,0.512,1.734,0.899c0.52,0.38,0.946,0.852,1.28,1.42
				c0.323,0.577,0.484,1.197,0.484,1.849v14.222c0,0.409-0.146,0.805-0.438,1.168c-0.292,0.371-0.642,0.536-1.068,0.536
				c-0.203,0-0.504-0.099-0.897-0.312c-0.397-0.194-0.599-0.443-0.599-0.718V66.454c0-0.165-0.062-0.307-0.173-0.387
				c-0.123-0.088-0.276-0.131-0.445-0.131c-0.142,0-0.282,0.043-0.417,0.11c-0.132,0.066-0.201,0.193-0.201,0.407v33.443
				c0,0.483-0.212,0.89-0.619,1.204c-0.414,0.339-0.849,0.487-1.298,0.487c-0.491,0-0.979-0.148-1.474-0.487
				c-0.509-0.314-0.757-0.791-0.757-1.416V79.558c-0.058-0.047-0.112-0.086-0.153-0.108l-0.305-0.152h-0.052h-0.049
				c-0.11,0.035-0.347,0.11-0.729,0.261v20.34c0,0.505-0.213,0.918-0.654,1.233c-0.43,0.318-0.889,0.458-1.362,0.458
				c-0.421,0-0.855-0.117-1.322-0.383c-0.467-0.264-0.7-0.664-0.7-1.22V66.562c0-0.107-0.09-0.232-0.258-0.395
				c-0.177-0.152-0.329-0.23-0.476-0.23c-0.056,0-0.166,0.043-0.325,0.11c-0.158,0.066-0.231,0.171-0.231,0.302v12.365
				c0,0.396-0.172,0.685-0.522,0.881c-0.343,0.206-0.649,0.315-0.925,0.315c-0.421,0-0.792-0.132-1.122-0.389
				c-0.324-0.259-0.489-0.613-0.489-1.063V63.983c0-0.559,0.196-1.095,0.598-1.621c0.395-0.506,0.884-0.966,1.472-1.365
				c0.587-0.394,1.189-0.71,1.833-0.929c0.642-0.229,1.196-0.347,1.646-0.347H111.189 M107.569,50.411
				c-1.179,0-2.176,0.436-2.964,1.294c-0.784,0.849-1.182,1.842-1.182,2.951c0,1.188,0.401,2.174,1.194,2.93
				c0.788,0.768,1.781,1.159,2.952,1.159c1.104,0,2.076-0.39,2.888-1.158c0.83-0.753,1.253-1.74,1.253-2.931
				c0-0.582-0.114-1.126-0.34-1.618c-0.228-0.523-0.526-0.963-0.908-1.342c-0.372-0.375-0.813-0.689-1.307-0.93
				C108.667,50.53,108.133,50.411,107.569,50.411L107.569,50.411z M111.189,59.458h-7.185c-0.479,0-1.063,0.122-1.735,0.362
				c-0.628,0.213-1.249,0.526-1.892,0.958c-0.599,0.407-1.114,0.885-1.533,1.422c-0.435,0.569-0.654,1.168-0.654,1.783v14.475
				c0,0.53,0.198,0.957,0.588,1.27c0.382,0.297,0.814,0.446,1.287,0.446c0.318,0,0.665-0.115,1.061-0.353
				c0.429-0.241,0.65-0.614,0.65-1.107V66.349c0-0.01,0-0.029,0.07-0.059c0.049-0.021,0.197-0.083,0.239-0.091
				c0.057,0.001,0.159,0.058,0.288,0.168c0.147,0.143,0.166,0.2,0.167,0.206l-0.001,33.413c0,0.649,0.28,1.138,0.833,1.449
				c0.492,0.28,0.967,0.417,1.452,0.417c0.551,0,1.063-0.171,1.519-0.51c0.503-0.36,0.76-0.848,0.76-1.445V79.738
				c0.24-0.091,0.406-0.146,0.504-0.177l0.249,0.124c0.002,0.001,0.004,0.002,0.007,0.004v19.996c0,0.727,0.297,1.278,0.882,1.641
				c0.515,0.353,1.045,0.526,1.613,0.526c0.529,0,1.021-0.184,1.465-0.547c0.466-0.36,0.715-0.849,0.715-1.408V66.454
				c0-0.144,0.038-0.162,0.056-0.172c0.11-0.055,0.208-0.082,0.298-0.082c0.116,0,0.217,0.028,0.292,0.082
				c0.039,0.027,0.063,0.092,0.063,0.172v12.679c0,0.269,0.129,0.652,0.747,0.955c0.411,0.223,0.755,0.338,1.013,0.338
				c0.522,0,0.939-0.208,1.276-0.637c0.328-0.408,0.495-0.856,0.495-1.331V64.236c0-0.697-0.174-1.363-0.518-1.978
				c-0.352-0.599-0.806-1.104-1.354-1.504c-0.522-0.396-1.114-0.703-1.805-0.937C112.45,59.58,111.805,59.458,111.189,59.458
				L111.189,59.458z"/>
		</g>
	</g>
	<g>
		<g>
			<path fill="#1C1C1C" d="M17.072,70.574c-0.536,0-1.042-0.167-1.546-0.51c-0.54-0.34-0.815-0.854-0.815-1.525V48.473
				c-0.032-0.024-0.061-0.042-0.083-0.055l-0.305-0.152c-0.109,0.042-0.316,0.11-0.638,0.232v20.25c0,0.554-0.238,1.005-0.708,1.341
				c-0.433,0.321-0.917,0.484-1.438,0.484c-0.462,0-0.916-0.132-1.387-0.403c-0.508-0.282-0.767-0.731-0.767-1.333V35.414
				c0-0.041-0.038-0.125-0.218-0.299c-0.15-0.13-0.277-0.196-0.384-0.196c-0.038,0.002-0.18,0.062-0.274,0.102
				c-0.135,0.057-0.152,0.126-0.152,0.18v12.365c0,0.441-0.198,0.776-0.589,0.996c-0.37,0.223-0.695,0.333-0.989,0.333
				c-0.447,0-0.84-0.136-1.202-0.417c-0.36-0.289-0.542-0.681-0.542-1.167V32.834c0-0.585,0.211-1.157,0.627-1.699
				c0.407-0.524,0.913-0.993,1.503-1.395c0.638-0.428,1.248-0.737,1.864-0.946c0.65-0.233,1.219-0.351,1.688-0.351h7.187
				c0.605,0,1.235,0.119,1.874,0.352c0.667,0.225,1.246,0.526,1.768,0.919c0.533,0.391,0.976,0.882,1.313,1.458
				c0.334,0.598,0.502,1.242,0.502,1.916V47.31c0,0.441-0.157,0.861-0.467,1.249c-0.31,0.394-0.693,0.585-1.172,0.585
				c-0.234,0-0.557-0.109-0.96-0.323c-0.552-0.275-0.668-0.607-0.668-0.836V35.307c0-0.125-0.043-0.227-0.118-0.282
				c-0.1-0.07-0.225-0.106-0.369-0.106c-0.108,0-0.225,0.032-0.356,0.098c-0.06,0.031-0.129,0.091-0.129,0.291v33.442
				c0,0.52-0.225,0.961-0.668,1.31C18.034,70.4,17.569,70.574,17.072,70.574z M14.282,27.465c-1.135,0-2.097-0.378-2.86-1.124
				c-0.764-0.728-1.152-1.682-1.152-2.833c0-1.076,0.386-2.039,1.148-2.862c0.76-0.83,1.724-1.251,2.865-1.251
				c0.544,0,1.059,0.115,1.529,0.341c0.481,0.234,0.91,0.54,1.273,0.906c0.368,0.365,0.656,0.792,0.881,1.304
				c0.217,0.471,0.328,0.997,0.328,1.562c0,1.153-0.408,2.107-1.214,2.836C16.292,27.088,15.351,27.465,14.282,27.465z"/>
			<path fill="#FFFFFF" d="M14.282,19.527c0.509,0,1.006,0.104,1.472,0.328c0.47,0.229,0.881,0.521,1.236,0.88
				c0.37,0.367,0.645,0.788,0.854,1.264c0.219,0.476,0.316,0.984,0.316,1.509c0,1.115-0.385,2.027-1.17,2.739
				c-0.767,0.725-1.666,1.086-2.708,1.086c-1.108,0-2.027-0.362-2.768-1.086c-0.747-0.711-1.113-1.624-1.113-2.739
				c0-1.044,0.366-1.966,1.113-2.773C12.255,19.926,13.174,19.527,14.282,19.527 M17.904,28.575c0.578,0,1.2,0.114,1.828,0.344
				c0.647,0.218,1.221,0.514,1.734,0.9c0.519,0.38,0.946,0.851,1.279,1.419c0.322,0.577,0.484,1.197,0.484,1.849V47.31
				c0,0.409-0.148,0.804-0.438,1.167c-0.293,0.373-0.642,0.536-1.069,0.536c-0.202,0-0.504-0.098-0.898-0.308
				c-0.396-0.197-0.598-0.444-0.598-0.72V35.307c0-0.164-0.06-0.307-0.172-0.389c-0.124-0.087-0.276-0.132-0.446-0.132
				c-0.143,0-0.281,0.045-0.416,0.112c-0.131,0.066-0.202,0.194-0.202,0.408v33.442c0,0.484-0.211,0.886-0.618,1.206
				c-0.413,0.337-0.849,0.487-1.299,0.487c-0.49,0-0.977-0.15-1.472-0.487c-0.509-0.32-0.757-0.793-0.757-1.416v-20.13
				c-0.057-0.047-0.112-0.085-0.154-0.107l-0.307-0.153h-0.052h-0.049c-0.11,0.036-0.348,0.112-0.729,0.26v20.34
				c0,0.505-0.212,0.918-0.653,1.233c-0.429,0.318-0.888,0.46-1.361,0.46c-0.422,0-0.857-0.118-1.321-0.386
				c-0.469-0.261-0.701-0.662-0.701-1.219V35.414c0-0.107-0.091-0.232-0.258-0.394c-0.177-0.154-0.33-0.233-0.476-0.233
				c-0.057,0-0.166,0.045-0.325,0.112c-0.159,0.066-0.233,0.17-0.233,0.302v12.365c0,0.395-0.171,0.684-0.522,0.881
				c-0.342,0.206-0.648,0.316-0.924,0.316c-0.422,0-0.79-0.132-1.121-0.389c-0.324-0.259-0.491-0.612-0.491-1.063V32.834
				c0-0.558,0.197-1.095,0.6-1.619C6.16,30.708,6.65,30.25,7.239,29.85c0.587-0.394,1.188-0.712,1.832-0.93
				c0.643-0.23,1.195-0.344,1.646-0.344H17.904 M14.282,19.263c-1.18,0-2.176,0.435-2.963,1.294
				c-0.784,0.848-1.182,1.841-1.182,2.951c0,1.188,0.402,2.174,1.194,2.93c0.786,0.769,1.779,1.159,2.95,1.159
				c1.104,0,2.076-0.39,2.889-1.158c0.83-0.751,1.253-1.739,1.253-2.931c0-0.584-0.114-1.129-0.34-1.619
				c-0.23-0.523-0.527-0.964-0.908-1.341c-0.373-0.375-0.813-0.689-1.307-0.93C15.38,19.382,14.846,19.263,14.282,19.263
				L14.282,19.263z M17.904,28.312h-7.187c-0.484,0-1.067,0.121-1.734,0.359c-0.624,0.211-1.243,0.525-1.89,0.959
				c-0.604,0.41-1.119,0.888-1.534,1.423c-0.435,0.567-0.655,1.166-0.655,1.781V47.31c0,0.528,0.198,0.956,0.59,1.269
				c0.383,0.297,0.814,0.447,1.286,0.447c0.319,0,0.666-0.116,1.061-0.354c0.429-0.241,0.649-0.614,0.649-1.107V35.2
				c0-0.009,0-0.029,0.071-0.058c0.077-0.033,0.204-0.086,0.24-0.093c0.032,0.001,0.125,0.03,0.285,0.17
				c0.148,0.143,0.167,0.201,0.169,0.207L9.253,68.838c0,0.653,0.281,1.141,0.836,1.449c0.488,0.281,0.963,0.419,1.45,0.419
				c0.549,0,1.06-0.172,1.518-0.512c0.503-0.359,0.76-0.847,0.76-1.445V48.59c0.239-0.09,0.405-0.145,0.504-0.177l0.25,0.125
				c0.002,0.001,0.005,0.003,0.008,0.005v19.997c0,0.721,0.296,1.271,0.88,1.64c0.52,0.354,1.05,0.527,1.613,0.527
				c0.528,0,1.021-0.184,1.466-0.547c0.473-0.372,0.714-0.848,0.714-1.41V35.307c0-0.144,0.041-0.164,0.058-0.173
				c0.112-0.056,0.209-0.084,0.296-0.084c0.116,0,0.215,0.028,0.295,0.084c0.036,0.026,0.06,0.092,0.06,0.172v12.678
				c0,0.267,0.129,0.649,0.744,0.956c0.417,0.222,0.76,0.335,1.016,0.335c0.522,0,0.939-0.208,1.276-0.637
				c0.328-0.41,0.494-0.858,0.494-1.33V33.088c0-0.697-0.174-1.362-0.518-1.977c-0.349-0.597-0.804-1.101-1.354-1.504
				c-0.53-0.399-1.122-0.707-1.805-0.938C19.17,28.433,18.524,28.312,17.904,28.312L17.904,28.312z"/>
		</g>
	</g>
	<path fill="#FFFFFF" stroke="#ADADAD" stroke-miterlimit="10" d="M143.148,44.827l-5.653,3.649v-3.846v0.197
		c-2.249,0-4.067-1.589-4.067-3.553V29.933c0-1.967,1.818-3.559,4.067-3.559h12.963c2.243,0,4.061,1.592,4.061,3.559v11.341
		c0,1.964-1.818,3.553-4.061,3.553H143.148"/>
	<path fill="#1C1C1C" d="M10.33,23.792c-0.355-2.539,2.316-4.594,4.705-4.125c2.965,0.531,4.382,4.529,2.182,6.671
		C15.041,28.872,10.29,27.163,10.33,23.792"/>
	<g>
		<g>
			<path fill="#1C1C1C" d="M34.732,28.325c-2.323,0-4.212-1.901-4.212-4.238c0-2.326,1.89-4.218,4.212-4.218
				c2.338,0,4.241,1.892,4.241,4.218C38.973,26.424,37.07,28.325,34.732,28.325z"/>
			<g>
				<path fill="#FFFFFF" d="M34.732,20c2.27,0,4.109,1.835,4.109,4.086c0,2.266-1.839,4.106-4.109,4.106
					c-2.249,0-4.081-1.841-4.081-4.106C30.651,21.835,32.483,20,34.732,20 M34.732,19.737c-2.396,0-4.344,1.951-4.344,4.35
					c0,2.41,1.949,4.37,4.344,4.37c2.411,0,4.373-1.96,4.373-4.37C39.104,21.688,37.143,19.737,34.732,19.737L34.732,19.737z"/>
			</g>
		</g>
		<g>
			<path fill="#1C1C1C" d="M38.021,70.228c-1.349,0-2.447-1.096-2.447-2.442l-0.008-19.013h-1.605v19.013
				c0,1.369-1.072,2.442-2.44,2.442c-1.336,0-2.422-1.096-2.422-2.442V32.524L18.49,21.902c-0.841-0.887-0.802-2.297,0.085-3.146
				c0.416-0.399,0.96-0.618,1.533-0.618c0.613,0,1.187,0.245,1.615,0.69l10.146,10.143h5.863l10.083-10.145
				c0.414-0.437,1-0.688,1.605-0.688c0.573,0,1.117,0.22,1.532,0.618c0.882,0.85,0.921,2.26,0.085,3.143L40.431,32.524l0.006,35.261
				C40.438,69.132,39.354,70.228,38.021,70.228z"/>
			<g>
				<path fill="#FFFFFF" d="M49.42,18.271c0.517,0,1.035,0.192,1.44,0.582c0.829,0.799,0.871,2.123,0.081,2.957l-10.642,10.66
					l0.006,35.316c0,1.288-1.022,2.311-2.285,2.311c-1.275,0-2.315-1.022-2.315-2.311L35.698,48.64h-1.869v19.145
					c0,1.288-1.022,2.311-2.309,2.311c-1.26,0-2.291-1.022-2.291-2.311V32.469l-10.647-10.66c-0.792-0.834-0.752-2.158,0.083-2.957
					c0.406-0.39,0.924-0.582,1.441-0.582c0.553,0,1.105,0.219,1.52,0.65l10.186,10.183h5.973L47.909,18.92
					C48.317,18.49,48.868,18.271,49.42,18.271 M49.42,18.007c-0.641,0-1.262,0.267-1.703,0.732L37.676,28.84h-5.753L21.814,18.734
					c-0.45-0.468-1.057-0.727-1.706-0.727c-0.607,0-1.184,0.232-1.624,0.655c-0.939,0.898-0.981,2.392-0.092,3.329l10.575,10.588
					v35.207c0,1.42,1.146,2.574,2.554,2.574c1.442,0,2.572-1.131,2.572-2.574V48.904h1.342l0.008,18.881
					c0,1.42,1.157,2.574,2.579,2.574c1.405,0,2.548-1.154,2.548-2.574l-0.006-35.207l10.565-10.583
					c0.89-0.94,0.85-2.434-0.084-3.333C50.604,18.239,50.028,18.007,49.42,18.007L49.42,18.007z"/>
			</g>
		</g>
	</g>
	<g>
		<path fill-rule="evenodd" clip-rule="evenodd" fill="#1C1C1C" stroke="#FFFFFF" stroke-width="0.2639" stroke-miterlimit="10" d="
			M96.416,85.315c-1.531,0-3.019,0.033-4.503-0.011c-0.512-0.012-0.587,0.159-0.587,0.611c0.021,4.485,0.014,8.973,0.012,13.462
			c0,1.474-0.911,2.349-2.237,2.173c-1.034-0.131-1.634-0.847-1.634-1.969c-0.004-4.245-0.004-8.496-0.004-12.747
			c0-0.323-0.029-0.657,0.01-0.973c0.058-0.467-0.142-0.547-0.574-0.564c-0.488-0.012-0.596,0.126-0.596,0.608
			c0.02,4.551,0.017,9.103,0.014,13.655c-0.003,1.47-1.182,2.341-2.577,1.925c-0.821-0.247-1.281-0.936-1.281-1.943
			c0-4.464-0.017-8.933,0.015-13.396c0.004-0.646-0.116-0.877-0.815-0.849c-1.417,0.065-2.841,0.018-4.336,0.018
			c0.398-1.401,0.773-2.74,1.162-4.082c1.373-4.743,2.754-9.485,4.113-14.233c0.051-0.197,0.418-0.521-0.055-0.668
			c-0.427-0.132-0.633,0.093-0.762,0.524c-0.974,3.359-1.976,6.72-2.969,10.071c-0.225,0.761-0.572,1.428-1.447,1.547
			c-1.373,0.199-2.335-0.883-1.959-2.257c0.498-1.821,1.073-3.623,1.617-5.428c0.639-2.128,1.291-4.251,1.931-6.372
			c0.72-2.38,2.777-3.918,5.25-3.923c1.747,0,3.495,0,5.243,0c2.512,0,4.661,1.56,5.391,3.95c1.157,3.773,2.298,7.56,3.438,11.34
			c0.065,0.225,0.128,0.458,0.159,0.69c0.125,0.939-0.415,1.783-1.259,1.999c-0.877,0.225-1.7-0.201-2.04-1.138
			c-0.302-0.825-0.529-1.673-0.777-2.515c-0.791-2.665-1.571-5.328-2.369-7.991c-0.051-0.183-0.025-0.473-0.316-0.499
			c-0.211-0.017-0.475-0.05-0.626,0.044c-0.188,0.131,0.009,0.355,0.057,0.525c1.756,6.05,3.515,12.093,5.277,18.14
			C96.398,85.104,96.394,85.168,96.416,85.315z"/>
		<path fill-rule="evenodd" clip-rule="evenodd" fill="#1C1C1C" stroke="#FFFFFF" stroke-width="0.2639" stroke-miterlimit="10" d="
			M90.994,55.23c0,2.326-1.747,4.109-4.047,4.109c-2.314,0.005-4.127-1.767-4.137-4.047c-0.009-2.288,1.798-4.126,4.074-4.143
			C89.176,51.133,90.988,52.935,90.994,55.23z"/>
	</g>
	<g>
		<path fill-rule="evenodd" clip-rule="evenodd" fill="#ADADAD" stroke="#FFFFFF" stroke-width="0.2639" stroke-miterlimit="10" d="
			M139.085,85.315c-1.532,0-3.021,0.033-4.505-0.011c-0.51-0.012-0.586,0.159-0.586,0.611c0.02,4.485,0.014,8.973,0.011,13.462
			c0,1.474-0.911,2.349-2.236,2.173c-1.035-0.131-1.634-0.847-1.634-1.969c-0.005-4.245-0.005-8.496-0.005-12.747
			c0-0.323-0.028-0.657,0.011-0.973c0.058-0.467-0.142-0.547-0.575-0.564c-0.489-0.012-0.596,0.126-0.596,0.608
			c0.019,4.551,0.017,9.103,0.014,13.655c-0.004,1.47-1.182,2.341-2.577,1.925c-0.82-0.247-1.281-0.936-1.281-1.943
			c0-4.464-0.017-8.933,0.014-13.396c0.006-0.646-0.115-0.877-0.814-0.849c-1.418,0.065-2.839,0.018-4.336,0.018
			c0.399-1.401,0.774-2.74,1.164-4.082c1.374-4.743,2.754-9.485,4.113-14.233c0.052-0.197,0.419-0.521-0.055-0.668
			c-0.427-0.132-0.635,0.093-0.763,0.524c-0.974,3.359-1.976,6.72-2.968,10.071c-0.225,0.761-0.572,1.428-1.447,1.547
			c-1.374,0.199-2.336-0.883-1.959-2.257c0.499-1.821,1.072-3.623,1.617-5.428c0.64-2.128,1.292-4.251,1.93-6.372
			c0.72-2.38,2.778-3.918,5.25-3.923c1.748,0,3.496,0,5.244,0c2.513,0,4.66,1.56,5.391,3.95c1.156,3.773,2.296,7.56,3.438,11.34
			c0.065,0.225,0.129,0.458,0.159,0.69c0.125,0.939-0.416,1.783-1.259,1.999c-0.877,0.225-1.702-0.201-2.04-1.138
			c-0.302-0.825-0.529-1.673-0.778-2.515c-0.79-2.665-1.57-5.328-2.368-7.991c-0.053-0.183-0.025-0.473-0.318-0.499
			c-0.21-0.017-0.473-0.05-0.626,0.044c-0.188,0.131,0.008,0.355,0.057,0.525c1.758,6.05,3.516,12.093,5.278,18.14
			C139.065,85.104,139.063,85.168,139.085,85.315z"/>
		<path fill-rule="evenodd" clip-rule="evenodd" fill="#ADADAD" stroke="#FFFFFF" stroke-width="0.2639" stroke-miterlimit="10" d="
			M133.663,55.23c0,2.326-1.747,4.109-4.049,4.109c-2.313,0.005-4.127-1.767-4.136-4.047c-0.01-2.288,1.799-4.126,4.074-4.143
			C131.844,51.133,133.657,52.935,133.663,55.23z"/>
	</g>
	<g>
		<g>
			
				<path fill-rule="evenodd" clip-rule="evenodd" fill="#1C1C1C" stroke="#FFFFFF" stroke-width="0.2639" stroke-miterlimit="10" d="
				M64.988,53.128c-1.533,0-3.021,0.03-4.507-0.011c-0.51-0.013-0.584,0.157-0.584,0.612c0.02,4.486,0.014,8.972,0.011,13.463
				c0,1.473-0.911,2.344-2.238,2.173c-1.034-0.131-1.632-0.849-1.632-1.97c-0.006-4.248-0.006-8.5-0.006-12.746
				c0-0.326-0.028-0.656,0.01-0.975c0.059-0.467-0.142-0.547-0.573-0.564c-0.49-0.013-0.598,0.125-0.598,0.605
				c0.02,4.555,0.017,9.105,0.016,13.654c-0.002,1.474-1.183,2.345-2.578,1.928c-0.821-0.245-1.281-0.936-1.281-1.941
				c0-4.464-0.016-8.933,0.015-13.396c0.004-0.646-0.116-0.875-0.816-0.849c-1.416,0.066-2.838,0.017-4.334,0.017
				c0.4-1.4,0.774-2.739,1.162-4.083c1.375-4.744,2.755-9.486,4.115-14.232c0.051-0.197,0.418-0.52-0.055-0.667
				c-0.427-0.131-0.634,0.089-0.764,0.525c-0.972,3.359-1.975,6.715-2.968,10.071c-0.223,0.76-0.571,1.425-1.445,1.548
				c-1.374,0.197-2.336-0.887-1.96-2.26c0.498-1.822,1.073-3.621,1.617-5.43c0.64-2.128,1.291-4.248,1.931-6.37
				c0.719-2.38,2.776-3.919,5.25-3.922c1.748,0,3.495,0,5.243,0c2.514,0,4.662,1.558,5.391,3.947
				c1.158,3.777,2.298,7.561,3.439,11.343c0.066,0.224,0.128,0.458,0.159,0.688c0.124,0.942-0.416,1.784-1.26,2.003
				c-0.877,0.225-1.701-0.202-2.04-1.138c-0.302-0.827-0.528-1.674-0.777-2.52c-0.79-2.662-1.569-5.325-2.369-7.99
				c-0.052-0.184-0.023-0.471-0.316-0.498c-0.21-0.017-0.474-0.053-0.627,0.043c-0.188,0.129,0.009,0.354,0.058,0.525
				c1.756,6.048,3.516,12.096,5.277,18.141C64.969,52.915,64.966,52.981,64.988,53.128z"/>
			
				<path fill-rule="evenodd" clip-rule="evenodd" fill="#1C1C1C" stroke="#FFFFFF" stroke-width="0.2639" stroke-miterlimit="10" d="
				M59.567,23.042c0,2.328-1.749,4.109-4.049,4.111c-2.314,0.002-4.128-1.767-4.135-4.049c-0.011-2.287,1.797-4.125,4.072-4.141
				C57.748,18.948,59.561,20.749,59.567,23.042z"/>
			
				<path fill-rule="evenodd" clip-rule="evenodd" fill="#1C1C1C" stroke="#FFFFFF" stroke-width="0.2639" stroke-miterlimit="10" d="
				M56.207,67.601c0-4.765,0-9.521,0-14.287c0.02,0,0.042,0,0.063,0c0,4.773,0,9.542,0,14.312
				C56.249,67.614,56.226,67.61,56.207,67.601z"/>
		</g>
		<g>
			<path fill="#ADADAD" stroke="#FFFFFF" stroke-width="0.2639" stroke-miterlimit="10" d="M9.178,50.835
				c-1.615-0.341-3.355,1.393-2.273,2.907c3.591,4.185,7.498,8.797,10.988,11.716c0,0,1.778-1.596,1.794-0.146
				c0.096,8.319,8.185-1.667,8.185-1.667c-3.663-1.128-5.411-2.747-9.167-3.042c-0.597-0.176-0.945-0.764-1.387-1.164
				C14.636,56.555,12.051,53.552,9.178,50.835"/>
			
				<path fill-rule="evenodd" clip-rule="evenodd" fill="#ADADAD" stroke="#FFFFFF" stroke-width="0.2639" stroke-miterlimit="10" d="
				M33.294,85.241c-1.532,0-3.021,0.033-4.505-0.008c-0.512-0.014-0.586,0.154-0.586,0.609c0.02,4.488,0.014,8.975,0.011,13.463
				c0,1.473-0.911,2.348-2.238,2.175c-1.034-0.133-1.632-0.85-1.632-1.97c-0.005-4.247-0.005-8.497-0.005-12.745
				c0-0.325-0.028-0.658,0.011-0.975c0.057-0.468-0.143-0.55-0.575-0.563c-0.489-0.015-0.595,0.124-0.595,0.604
				c0.019,4.555,0.015,9.106,0.012,13.655c-0.003,1.471-1.181,2.343-2.575,1.928c-0.82-0.247-1.281-0.936-1.281-1.942
				c0-4.464-0.017-8.935,0.014-13.397c0.005-0.646-0.116-0.875-0.815-0.847c-1.417,0.064-2.841,0.013-4.336,0.013
				c0.399-1.398,2.178-13.903,3.537-18.649c0.046-0.475,0.159-1.133,0.159-1.133c-0.321-0.405-1.872-1.647-1.872-1.647
				c0.514-1.703,1.524-2.443,3.073-3.029c0.613-0.234,1.284-0.357,1.985-0.361c1.748,0,3.495,0,5.243,0
				c2.514,0,4.661,1.562,5.392,3.949c1.156,3.777,2.297,7.56,3.438,11.344c0.065,0.225,0.128,0.46,0.158,0.688
				c0.126,0.942-0.415,1.784-1.257,2.005c-0.879,0.223-1.702-0.202-2.041-1.139c-0.302-0.827-0.528-1.674-0.777-2.52
				c-0.79-2.661-1.569-5.325-2.367-7.989c-0.053-0.185-0.025-0.472-0.318-0.499c-0.211-0.016-0.473-0.051-0.627,0.045
				c-0.188,0.128,0.009,0.354,0.057,0.526c1.757,6.048,3.515,12.093,5.277,18.14C33.274,85.03,33.272,85.097,33.294,85.241z"/>
			
				<path fill-rule="evenodd" clip-rule="evenodd" fill="#ADADAD" stroke="#FFFFFF" stroke-width="0.2639" stroke-miterlimit="10" d="
				M27.873,55.157c0,2.328-1.749,4.11-4.049,4.111c-2.313,0.004-4.126-1.767-4.135-4.048c-0.011-2.286,1.797-4.125,4.072-4.142
				C26.053,51.063,27.867,52.862,27.873,55.157z"/>
			<path fill="#ADADAD" d="M20.766,60.854c0,0,1.204-0.056-3.21-0.385c-4.416-0.329-1.713,2.936-1.713,2.936l1.376,1.238
				l3.458-3.521L20.766,60.854z"/>
		</g>
		<g>
			<g>
				<path fill="#1C1C1C" d="M47.824,101.721c-0.541,0-1.046-0.167-1.547-0.511c-0.539-0.332-0.815-0.846-0.815-1.524V79.622
					c-0.033-0.024-0.062-0.044-0.086-0.058l-0.301-0.149c-0.107,0.04-0.314,0.106-0.639,0.232v20.25
					c0,0.553-0.238,1.004-0.709,1.341c-0.43,0.319-0.915,0.482-1.439,0.482c-0.461,0-0.915-0.131-1.387-0.4
					c-0.508-0.286-0.766-0.735-0.766-1.334V66.562c0-0.041-0.038-0.127-0.217-0.3c-0.149-0.128-0.276-0.193-0.383-0.193
					c-0.042,0.001-0.206,0.07-0.275,0.1c-0.134,0.057-0.151,0.126-0.151,0.181v12.365c0,0.441-0.198,0.776-0.589,0.996
					c-0.37,0.223-0.695,0.332-0.989,0.332c-0.443,0-0.848-0.14-1.203-0.416c-0.359-0.288-0.541-0.681-0.541-1.168V63.983
					c0-0.594,0.205-1.15,0.625-1.701c0.411-0.527,0.916-0.996,1.502-1.395c0.637-0.425,1.247-0.734,1.865-0.944
					c0.656-0.234,1.225-0.354,1.689-0.354h7.186c0.591,0,1.239,0.123,1.872,0.354c0.673,0.227,1.252,0.527,1.769,0.918
					c0.531,0.388,0.973,0.879,1.313,1.459c0.334,0.596,0.503,1.239,0.503,1.915v14.222c0,0.442-0.157,0.862-0.467,1.25
					c-0.31,0.395-0.693,0.586-1.171,0.586c-0.235,0-0.559-0.11-0.961-0.327c-0.552-0.271-0.668-0.603-0.668-0.834V66.454
					c0-0.124-0.043-0.227-0.117-0.279c-0.097-0.069-0.225-0.106-0.369-0.106c-0.11,0-0.229,0.032-0.355,0.097
					c-0.061,0.03-0.13,0.091-0.13,0.289v33.443c0,0.525-0.225,0.966-0.67,1.309C48.788,101.547,48.323,101.721,47.824,101.721z
					 M45.033,58.613c-1.136,0-2.098-0.378-2.86-1.124c-0.765-0.729-1.153-1.683-1.153-2.833c0-1.075,0.386-2.039,1.149-2.862
					c0.758-0.831,1.722-1.251,2.864-1.251c0.544,0,1.058,0.115,1.528,0.342c0.479,0.233,0.908,0.538,1.274,0.905
					c0.369,0.368,0.657,0.794,0.88,1.305c0.218,0.475,0.329,1,0.329,1.561c0,1.151-0.408,2.105-1.213,2.837
					C47.044,58.236,46.103,58.613,45.033,58.613z"/>
				<path fill="#FFFFFF" d="M45.033,50.674c0.508,0,1.006,0.104,1.47,0.329c0.472,0.229,0.882,0.522,1.238,0.88
					c0.368,0.367,0.644,0.788,0.853,1.265c0.218,0.476,0.318,0.984,0.318,1.508c0,1.114-0.387,2.027-1.17,2.739
					c-0.767,0.725-1.666,1.086-2.708,1.086c-1.108,0-2.027-0.361-2.768-1.086c-0.747-0.712-1.114-1.625-1.114-2.739
					c0-1.043,0.367-1.965,1.114-2.773C43.005,51.073,43.925,50.674,45.033,50.674 M48.654,59.722c0.577,0,1.2,0.117,1.827,0.347
					c0.649,0.219,1.222,0.512,1.734,0.899c0.521,0.38,0.946,0.852,1.279,1.42c0.324,0.577,0.485,1.197,0.485,1.849v14.222
					c0,0.409-0.148,0.805-0.438,1.168c-0.292,0.371-0.643,0.536-1.068,0.536c-0.204,0-0.504-0.099-0.898-0.312
					c-0.397-0.194-0.599-0.443-0.599-0.718V66.454c0-0.165-0.06-0.307-0.172-0.387c-0.123-0.088-0.277-0.131-0.446-0.131
					c-0.142,0-0.282,0.043-0.415,0.11c-0.131,0.066-0.203,0.193-0.203,0.407v33.443c0,0.483-0.211,0.89-0.619,1.204
					c-0.413,0.339-0.848,0.487-1.298,0.487c-0.491,0-0.979-0.148-1.472-0.487c-0.51-0.314-0.758-0.791-0.758-1.416V79.558
					c-0.059-0.047-0.113-0.086-0.153-0.108l-0.307-0.152h-0.052h-0.049c-0.11,0.035-0.347,0.11-0.729,0.261v20.34
					c0,0.505-0.213,0.918-0.654,1.233c-0.428,0.318-0.888,0.458-1.362,0.458c-0.42,0-0.856-0.117-1.321-0.383
					c-0.467-0.264-0.7-0.664-0.7-1.22V66.562c0-0.107-0.089-0.232-0.257-0.395c-0.176-0.152-0.33-0.23-0.475-0.23
					c-0.058,0-0.167,0.043-0.327,0.11c-0.158,0.066-0.231,0.171-0.231,0.302v12.365c0,0.396-0.172,0.685-0.522,0.881
					c-0.342,0.206-0.649,0.315-0.925,0.315c-0.421,0-0.792-0.132-1.122-0.389c-0.323-0.259-0.49-0.613-0.49-1.063V63.983
					c0-0.559,0.196-1.095,0.598-1.621c0.395-0.506,0.884-0.966,1.472-1.365c0.589-0.394,1.19-0.71,1.833-0.929
					c0.642-0.229,1.194-0.347,1.646-0.347H48.654 M45.033,50.411c-1.181,0-2.177,0.436-2.962,1.294
					c-0.785,0.848-1.183,1.842-1.183,2.951c0,1.188,0.402,2.174,1.195,2.93c0.785,0.768,1.778,1.159,2.95,1.159
					c1.104,0,2.077-0.39,2.89-1.158c0.83-0.754,1.253-1.742,1.253-2.931c0-0.58-0.115-1.124-0.342-1.618
					c-0.228-0.522-0.525-0.962-0.906-1.342c-0.375-0.378-0.816-0.691-1.309-0.93C46.13,50.53,45.597,50.411,45.033,50.411
					L45.033,50.411z M48.654,59.458h-7.186c-0.479,0-1.063,0.122-1.735,0.362c-0.625,0.212-1.245,0.526-1.891,0.957
					c-0.6,0.408-1.115,0.886-1.533,1.423c-0.435,0.569-0.654,1.168-0.654,1.783v14.475c0,0.529,0.198,0.956,0.588,1.27
					c0.382,0.297,0.814,0.446,1.287,0.446c0.319,0,0.666-0.115,1.061-0.354c0.429-0.24,0.649-0.613,0.649-1.106V66.349
					c0-0.01,0-0.029,0.07-0.059c0.049-0.021,0.198-0.084,0.239-0.091c0.036,0.001,0.129,0.03,0.288,0.167
					c0.146,0.143,0.165,0.2,0.167,0.206l-0.001,33.414c0,0.649,0.28,1.138,0.833,1.449c0.491,0.28,0.966,0.417,1.451,0.417
					c0.553,0,1.064-0.172,1.52-0.51c0.503-0.36,0.76-0.848,0.76-1.445V79.738c0.24-0.091,0.406-0.146,0.505-0.177l0.25,0.124
					c0.002,0.001,0.004,0.003,0.007,0.004v19.996c0,0.728,0.297,1.279,0.883,1.641c0.512,0.352,1.043,0.526,1.611,0.526
					c0.53,0,1.023-0.184,1.465-0.547c0.466-0.359,0.715-0.848,0.715-1.408V66.454c0-0.143,0.039-0.162,0.058-0.172
					c0.107-0.055,0.207-0.082,0.296-0.082c0.117,0,0.218,0.028,0.292,0.082c0.039,0.027,0.062,0.092,0.062,0.172v12.679
					c0,0.269,0.129,0.652,0.747,0.955c0.419,0.226,0.754,0.338,1.015,0.338c0.521,0,0.938-0.208,1.275-0.637
					c0.328-0.41,0.495-0.858,0.495-1.331V64.236c0-0.698-0.174-1.363-0.519-1.978c-0.352-0.601-0.807-1.104-1.354-1.504
					c-0.524-0.396-1.116-0.704-1.806-0.937C49.924,59.583,49.261,59.458,48.654,59.458L48.654,59.458z"/>
			</g>
		</g>
		<g>
			<g>
				<path fill="#1C1C1C" d="M68.684,102.197c-0.534,0-1.04-0.166-1.546-0.509c-0.539-0.338-0.814-0.853-0.814-1.526V80.098
					c-0.032-0.023-0.061-0.042-0.084-0.055l-0.304-0.151c-0.103,0.038-0.31,0.106-0.637,0.232v20.247
					c0,0.554-0.238,1.005-0.708,1.342c-0.433,0.321-0.917,0.484-1.44,0.484c-0.461,0-0.915-0.131-1.387-0.401
					c-0.509-0.284-0.768-0.733-0.768-1.333V67.038c0-0.035-0.028-0.12-0.215-0.298c-0.153-0.133-0.28-0.199-0.385-0.199
					c-0.042,0.002-0.204,0.073-0.273,0.104c-0.136,0.056-0.153,0.125-0.153,0.18V79.19c0,0.44-0.198,0.775-0.588,0.997
					c-0.374,0.222-0.698,0.33-0.99,0.33c-0.449,0-0.842-0.136-1.203-0.416c-0.36-0.291-0.541-0.684-0.541-1.168V64.457
					c0-0.584,0.211-1.155,0.626-1.698c0.412-0.527,0.917-0.996,1.502-1.395c0.64-0.428,1.25-0.736,1.866-0.943
					c0.645-0.234,1.214-0.354,1.688-0.354h7.187c0.602,0,1.25,0.123,1.873,0.354c0.67,0.225,1.25,0.524,1.768,0.917
					c0.535,0.391,0.978,0.882,1.313,1.459c0.334,0.596,0.503,1.239,0.503,1.915v14.221c0,0.44-0.157,0.86-0.467,1.248
					c-0.31,0.395-0.693,0.587-1.173,0.587c-0.236,0-0.559-0.109-0.96-0.324c-0.551-0.273-0.667-0.605-0.667-0.836V66.931
					c0-0.124-0.043-0.227-0.119-0.281c-0.1-0.071-0.223-0.108-0.367-0.108c-0.109,0-0.226,0.032-0.355,0.1
					c-0.062,0.031-0.131,0.091-0.131,0.29v33.44c0,0.523-0.225,0.965-0.668,1.312C69.646,102.023,69.181,102.197,68.684,102.197z
					 M65.895,59.089c-1.137,0-2.099-0.378-2.86-1.123c-0.765-0.727-1.153-1.68-1.153-2.832c0-1.078,0.386-2.042,1.148-2.865
					c0.76-0.83,1.725-1.25,2.865-1.25c0.544,0,1.058,0.115,1.528,0.342c0.487,0.236,0.903,0.533,1.274,0.905
					c0.369,0.368,0.657,0.795,0.88,1.305c0.218,0.474,0.329,1.001,0.329,1.563c0,1.151-0.408,2.104-1.214,2.835
					C67.908,58.712,66.966,59.089,65.895,59.089z"/>
				<path fill="#FFFFFF" d="M65.895,51.15c0.508,0,1.006,0.104,1.47,0.329c0.472,0.229,0.882,0.521,1.238,0.879
					c0.368,0.367,0.645,0.789,0.853,1.265c0.219,0.477,0.318,0.985,0.318,1.51c0,1.112-0.387,2.026-1.171,2.737
					c-0.766,0.726-1.666,1.086-2.708,1.086c-1.107,0-2.027-0.36-2.768-1.086c-0.748-0.711-1.113-1.625-1.113-2.737
					c0-1.046,0.365-1.967,1.113-2.775C63.868,51.551,64.788,51.15,65.895,51.15 M69.517,60.199c0.577,0,1.2,0.113,1.827,0.347
					c0.648,0.217,1.224,0.512,1.734,0.898c0.52,0.38,0.947,0.85,1.279,1.42c0.324,0.577,0.485,1.197,0.485,1.849v14.221
					c0,0.411-0.148,0.803-0.438,1.166c-0.293,0.374-0.644,0.537-1.07,0.537c-0.202,0-0.502-0.097-0.897-0.309
					c-0.396-0.196-0.598-0.443-0.598-0.72V66.931c0-0.164-0.06-0.306-0.173-0.388c-0.123-0.089-0.274-0.134-0.444-0.134
					c-0.143,0-0.282,0.045-0.416,0.114c-0.131,0.065-0.203,0.193-0.203,0.407v33.44c0,0.486-0.21,0.89-0.618,1.208
					c-0.413,0.336-0.848,0.486-1.3,0.486c-0.49,0-0.976-0.15-1.472-0.486c-0.507-0.318-0.756-0.792-0.756-1.417V80.033
					c-0.059-0.048-0.113-0.085-0.154-0.106l-0.307-0.153h-0.051h-0.049c-0.11,0.034-0.348,0.111-0.728,0.26v20.338
					c0,0.507-0.214,0.92-0.653,1.234c-0.43,0.319-0.889,0.46-1.363,0.46c-0.42,0-0.855-0.117-1.321-0.384
					c-0.468-0.262-0.701-0.663-0.701-1.219V67.038c0-0.107-0.089-0.234-0.256-0.394c-0.179-0.155-0.331-0.235-0.476-0.235
					c-0.057,0-0.167,0.045-0.326,0.114c-0.158,0.065-0.232,0.169-0.232,0.301V79.19c0,0.396-0.171,0.684-0.521,0.882
					c-0.342,0.203-0.649,0.313-0.925,0.313c-0.422,0-0.791-0.132-1.122-0.389c-0.323-0.261-0.49-0.611-0.49-1.063V64.457
					c0-0.556,0.197-1.093,0.6-1.618c0.395-0.506,0.884-0.966,1.471-1.365c0.589-0.394,1.19-0.711,1.833-0.928
					c0.643-0.233,1.195-0.347,1.646-0.347H69.517 M65.895,50.887c-1.179,0-2.175,0.435-2.962,1.294
					c-0.785,0.847-1.183,1.841-1.183,2.953c0,1.189,0.402,2.175,1.195,2.929c0.784,0.768,1.777,1.158,2.95,1.158
					c1.106,0,2.079-0.39,2.89-1.158c0.83-0.752,1.253-1.739,1.253-2.929c0-0.581-0.115-1.126-0.342-1.621
					c-0.228-0.521-0.525-0.961-0.906-1.341c-0.38-0.382-0.809-0.687-1.309-0.93C66.993,51.006,66.459,50.887,65.895,50.887
					L65.895,50.887z M69.517,59.936H62.33c-0.489,0-1.073,0.122-1.735,0.362c-0.621,0.209-1.241,0.522-1.89,0.956
					c-0.599,0.407-1.114,0.886-1.533,1.423c-0.436,0.568-0.655,1.167-0.655,1.78v14.477c0,0.526,0.198,0.953,0.588,1.269
					c0.383,0.298,0.815,0.447,1.288,0.447c0.316,0,0.663-0.114,1.06-0.351c0.43-0.243,0.65-0.617,0.65-1.108V66.824
					c0-0.009,0-0.028,0.069-0.057c0.058-0.025,0.201-0.088,0.242-0.096c0.032,0.001,0.124,0.031,0.286,0.172
					c0.146,0.14,0.164,0.198,0.166,0.204l0,33.415c0,0.651,0.281,1.139,0.836,1.449c0.491,0.28,0.966,0.417,1.45,0.417
					c0.551,0,1.063-0.172,1.521-0.512c0.503-0.36,0.759-0.848,0.759-1.446V80.215c0.239-0.091,0.405-0.146,0.503-0.177l0.25,0.125
					c0.002,0.001,0.005,0.003,0.008,0.004v19.995c0,0.723,0.296,1.274,0.879,1.641c0.521,0.353,1.051,0.526,1.612,0.526
					c0.528,0,1.021-0.184,1.467-0.545c0.473-0.37,0.715-0.847,0.715-1.413v-33.44c0-0.143,0.04-0.163,0.057-0.171
					c0.114-0.059,0.21-0.087,0.298-0.087c0.116,0,0.213,0.028,0.29,0.084c0.041,0.029,0.064,0.093,0.064,0.174v12.678
					c0,0.268,0.129,0.65,0.745,0.956c0.413,0.222,0.757,0.336,1.015,0.336c0.523,0,0.941-0.209,1.278-0.638
					c0.328-0.41,0.494-0.858,0.494-1.329V64.713c0-0.698-0.174-1.363-0.519-1.978c-0.348-0.597-0.802-1.102-1.354-1.504
					c-0.527-0.399-1.119-0.706-1.807-0.936C70.797,60.061,70.134,59.936,69.517,59.936L69.517,59.936z"/>
			</g>
		</g>
	</g>
</g>
<polygon fill="#1C1C1B" points="235.153,14.343 234.683,14.816 228.786,8.92 212.656,8.92 214.717,21.298 220.211,21.298 
	224.271,36.594 213.606,44.483 215.057,46.142 221.885,42.241 225.591,45.959 217.543,52.42 217.543,67.938 222.004,72.4 
	217.703,76.705 217.703,80.888 221.264,84.449 221.264,98.156 216.339,98.156 216.339,106.354 224.272,114.286 239.222,114.286 
	246.354,110.16 246.354,78.3 241.172,69.744 244.717,66.196 244.717,57.583 253.094,53.121 253.094,43.788 272.407,52.42 
	285.201,52.42 285.201,32.025 289.645,27.587 286.697,22.954 265.299,22.954 257.214,28.932 254.806,21.206 260.047,4.202 
	258.242,3.115 247.313,14.953 234.878,15.01 234.683,14.816 235.153,14.343 235.15,13.678 246.727,13.624 257.998,1.412 
	261.628,3.598 256.201,21.202 257.93,26.746 264.861,21.621 287.431,21.621 291.342,27.773 286.535,32.578 286.537,53.751 
	272.122,53.751 254.428,45.844 254.428,53.92 246.049,58.384 246.049,66.746 242.854,69.946 247.686,77.927 247.686,110.929 
	239.578,115.619 223.719,115.619 215.007,106.905 215.007,96.824 219.932,96.824 219.932,85 216.371,81.441 216.371,76.154 
	220.12,72.4 216.209,68.49 216.209,51.781 223.599,45.848 221.66,43.905 214.77,47.841 211.65,44.271 222.751,36.061 
	219.188,22.631 213.586,22.631 211.082,7.588 229.339,7.588 235.625,13.873 235.153,14.343 235.15,13.678 "/>
<path fill="#1C1C1B" d="M218.132,78.484h-1.095v-0.952h1.095V78.484z M223.846,78.484h-1.904v-0.952h1.904V78.484z M229.559,78.484
	h-1.904v-0.952h1.904V78.484z M235.225,77.414l-1.067,1.07h-0.79v-0.952h0.395l0.785-0.791L235.225,77.414 M235.629,73.38h-0.952
	v-1.904h0.952V73.38z M235.629,67.667h-0.952v-1.904h0.952V67.667z M235.629,61.953h-0.952V60.05h0.952V61.953z M235.629,56.24
	h-0.952v-1.904h0.952V56.24z M235.629,50.526h-0.952v-1.904h0.952V50.526z M235.629,44.813h-0.952v-1.904h0.952V44.813z
	 M235.629,39.101h-0.952v-1.904h0.952V39.101z M235.629,33.387h-0.952v-1.903h0.952V33.387z M235.629,27.674h-0.952V25.77h0.952
	V27.674z M235.629,21.96h-0.952v-1.903h0.952V21.96z M235.629,16.248h-0.952v-1.905h0.952V16.248z"/>
<path fill="#1C1C1B" d="M225.526,28.477h-1.904v-0.952h1.904V28.477z M231.24,28.477h-1.904v-0.952h1.904V28.477z M236.952,28.477
	h-1.903v-0.952h1.903V28.477z M242.667,28.477h-1.905v-0.952h1.905V28.477z M247.494,25.714v0.709v0.198l-0.985,0.983l-0.672-0.676
	l0.708-0.703v-0.512H247.494 M247.494,21.905h-0.949v-1.904h0.949V21.905z M247.494,16.192h-0.949v-1.904h0.949V16.192z"/>
<path fill="#1C1C1B" d="M280.644,35.85h1.904v0.953h-1.904V35.85z M274.93,35.85h1.903v0.953h-1.903V35.85z M269.216,35.85h1.904
	v0.953h-1.904V35.85z M263.504,35.85h1.903v0.953h-1.903V35.85z M257.789,35.85h1.905v0.953h-1.905V35.85z M252.077,35.85h1.904
	v0.953h-1.904V35.85z M246.364,35.85h1.903v0.953h-1.903V35.85z M240.649,35.85h1.904v0.953h-1.904V35.85z M234.938,35.85h1.902
	v0.953h-1.902V35.85z M229.224,35.85h1.905v0.953h-1.905V35.85z M223.512,35.85h1.904v0.953h-1.904V35.85z"/>
<polyline fill="none" stroke="#1C1C1B" stroke-width="0.9525" stroke-miterlimit="10" stroke-dasharray="1.9041,3.8091" points="
	217.037,59.832 226.098,59.832 227.741,61.476 227.741,114.952 "/>
<line fill="none" stroke="#1C1C1B" stroke-width="0.9525" stroke-miterlimit="10" stroke-dasharray="1.9041,3.8091" x1="220.598" y1="97.49" x2="247.02" y2="97.49"/>
<g>
	<defs>
		<rect id="SVGID_1_" x="235.153" y="2.263" width="55.341" height="34.063"/>
	</defs>
	<clipPath id="SVGID_2_">
		<use xlink:href="#SVGID_1_"  overflow="visible"/>
	</clipPath>
	<polygon clip-path="url(#SVGID_2_)" fill="#ADADAD" stroke="#FFFFFF" stroke-width="0.3202" stroke-miterlimit="10" points="
		258.242,3.115 247.497,14.755 247.497,16.192 247.02,16.192 247.02,20.001 247.497,20.001 247.497,21.905 247.02,21.905 
		247.02,25.714 247.497,25.714 247.497,26.424 247.497,26.621 246.507,27.605 246.173,27.266 245.435,28.001 242.667,28.001 
		242.667,28.477 240.762,28.477 240.762,28.001 236.953,28.001 236.953,28.477 235.153,28.477 235.153,31.484 235.63,31.484 
		235.63,33.387 235.153,33.387 235.153,35.851 236.843,35.851 236.843,36.327 240.649,36.327 240.649,35.851 242.554,35.851 
		242.554,36.327 246.364,36.327 246.364,35.851 248.268,35.851 248.268,36.327 252.077,36.327 252.077,35.851 253.981,35.851 
		253.981,36.327 257.791,36.327 257.791,35.851 259.694,35.851 259.694,36.327 263.504,36.327 263.504,35.851 265.408,35.851 
		265.408,36.327 269.216,36.327 269.216,35.851 271.12,35.851 271.12,36.327 274.93,36.327 274.93,35.851 276.836,35.851 
		276.836,36.327 280.644,36.327 280.644,35.851 282.548,35.851 282.548,36.327 285.201,36.327 285.201,32.026 289.646,27.587 
		286.697,22.954 265.3,22.954 257.215,28.932 254.806,21.206 260.047,4.202 	"/>
	<polygon clip-path="url(#SVGID_2_)" fill="#541719" points="258.122,2.264 247.02,14.289 247.497,14.289 247.497,14.755 
		258.242,3.114 260.047,4.202 254.806,21.206 257.215,28.932 265.3,22.954 286.697,22.954 289.646,27.587 285.201,32.025 
		285.201,36.327 285.869,36.327 285.869,32.301 290.494,27.68 287.063,22.288 265.08,22.288 257.569,27.84 255.504,21.203 
		260.838,3.9 	"/>
	<rect x="235.153" y="31.484" clip-path="url(#SVGID_2_)" fill="#541719" width="0.476" height="1.903"/>
	<path clip-path="url(#SVGID_2_)" fill="#541719" d="M236.953,28.001h-1.8v0.476h1.8V28.001z M242.667,28.001h-1.905v0.476h1.905
		V28.001z M247.497,25.715h-0.478v0.708l-0.847,0.842l0.334,0.339l0.99-0.983v-0.197V25.715 M247.497,20.001h-0.478v1.904h0.478
		V20.001z M247.497,14.289h-0.478v1.904h0.478v-1.438V14.289"/>
	<path clip-path="url(#SVGID_2_)" fill="#541719" d="M236.84,35.85h-1.687v0.476h1.687V35.85z M242.554,35.85h-1.904v0.476h1.904
		V35.85z M248.268,35.85h-1.903v0.476h1.903V35.85z M253.981,35.85h-1.904v0.476h1.904V35.85z M259.694,35.85h-1.905v0.476h1.905
		V35.85z M265.407,35.85h-1.903v0.476h1.903V35.85z M271.12,35.85h-1.904v0.476h1.904V35.85z M276.833,35.85h-1.903v0.476h1.903
		V35.85z M282.548,35.85h-1.904v0.476h1.904V35.85z"/>
</g>
<line fill="none" stroke="#ADADAD" stroke-width="1.2642" stroke-linecap="round" stroke-miterlimit="10" x1="170.104" y1="57.536" x2="189.224" y2="57.536"/>
<polyline fill="none" stroke="#ADADAD" stroke-width="1.2642" stroke-linecap="round" stroke-miterlimit="10" points="
	182.96,51.272 189.224,57.536 182.96,63.8 "/>
</svg>
